<mxfile host="Electron" agent="Mozilla/5.0 (Windows NT 10.0; Win64; x64) AppleWebKit/537.36 (KHTML, like Gecko) draw.io/26.2.2 Chrome/134.0.6998.178 Electron/35.1.2 Safari/537.36" version="26.2.2">
  <diagram name="Pagina-1" id="kVXRr228qc9UfgevBvGa">
    <mxGraphModel dx="571" dy="336" grid="1" gridSize="10" guides="1" tooltips="1" connect="1" arrows="1" fold="1" page="1" pageScale="1" pageWidth="827" pageHeight="1169" math="1" shadow="0">
      <root>
        <mxCell id="0" />
        <mxCell id="1" parent="0" />
        <mxCell id="PiM88yR9kCzZZ7znFY00-6" value="$$q_2$$" style="text;html=1;align=center;verticalAlign=middle;resizable=0;points=[];autosize=1;strokeColor=none;fillColor=none;" vertex="1" parent="1">
          <mxGeometry x="440" y="230" width="70" height="30" as="geometry" />
        </mxCell>
        <mxCell id="PiM88yR9kCzZZ7znFY00-1" value="" style="endArrow=none;html=1;rounded=0;" edge="1" parent="1">
          <mxGeometry width="50" height="50" relative="1" as="geometry">
            <mxPoint x="360" y="330" as="sourcePoint" />
            <mxPoint x="450" y="240" as="targetPoint" />
          </mxGeometry>
        </mxCell>
        <mxCell id="PiM88yR9kCzZZ7znFY00-3" value="$$q_1$$" style="text;html=1;align=center;verticalAlign=middle;resizable=0;points=[];autosize=1;strokeColor=none;fillColor=none;" vertex="1" parent="1">
          <mxGeometry x="324" y="333" width="70" height="30" as="geometry" />
        </mxCell>
        <mxCell id="PiM88yR9kCzZZ7znFY00-4" value="" style="ellipse;whiteSpace=wrap;html=1;strokeColor=none;fillColor=#3399FF;" vertex="1" parent="1">
          <mxGeometry x="448" y="238" width="5" height="5" as="geometry" />
        </mxCell>
        <mxCell id="PiM88yR9kCzZZ7znFY00-7" value="" style="ellipse;whiteSpace=wrap;html=1;strokeColor=none;fillColor=#3399FF;" vertex="1" parent="1">
          <mxGeometry x="356.5" y="328" width="5" height="5" as="geometry" />
        </mxCell>
        <mxCell id="PiM88yR9kCzZZ7znFY00-8" value="" style="endArrow=none;html=1;rounded=0;dashed=1;dashPattern=8 8;" edge="1" parent="1">
          <mxGeometry width="50" height="50" relative="1" as="geometry">
            <mxPoint x="405" y="285" as="sourcePoint" />
            <mxPoint x="445" y="285" as="targetPoint" />
          </mxGeometry>
        </mxCell>
        <mxCell id="PiM88yR9kCzZZ7znFY00-9" value="" style="endArrow=none;html=1;rounded=0;curved=1;" edge="1" parent="1">
          <mxGeometry width="50" height="50" relative="1" as="geometry">
            <mxPoint x="425" y="285" as="sourcePoint" />
            <mxPoint x="415" y="275" as="targetPoint" />
            <Array as="points">
              <mxPoint x="425" y="275" />
            </Array>
          </mxGeometry>
        </mxCell>
        <mxCell id="PiM88yR9kCzZZ7znFY00-10" value="$$\theta$$" style="text;html=1;align=center;verticalAlign=middle;resizable=0;points=[];autosize=1;strokeColor=none;fillColor=none;" vertex="1" parent="1">
          <mxGeometry x="374" y="290" width="80" height="30" as="geometry" />
        </mxCell>
        <mxCell id="PiM88yR9kCzZZ7znFY00-11" value="$$d$$" style="text;html=1;align=center;verticalAlign=middle;resizable=0;points=[];autosize=1;strokeColor=none;fillColor=none;rotation=-45;" vertex="1" parent="1">
          <mxGeometry x="361.5" y="260" width="60" height="30" as="geometry" />
        </mxCell>
        <mxCell id="PiM88yR9kCzZZ7znFY00-12" value="" style="endArrow=classic;html=1;rounded=0;strokeColor=#FF0000;" edge="1" parent="1">
          <mxGeometry width="50" height="50" relative="1" as="geometry">
            <mxPoint x="339" y="210" as="sourcePoint" />
            <mxPoint x="489" y="210" as="targetPoint" />
          </mxGeometry>
        </mxCell>
        <mxCell id="PiM88yR9kCzZZ7znFY00-13" value="$$\mathbf{E}$$" style="text;html=1;align=center;verticalAlign=middle;resizable=0;points=[];autosize=1;strokeColor=none;fillColor=none;fontColor=#FF0000;" vertex="1" parent="1">
          <mxGeometry x="359" y="180" width="110" height="30" as="geometry" />
        </mxCell>
        <mxCell id="PiM88yR9kCzZZ7znFY00-15" value="$$x$$" style="text;html=1;align=center;verticalAlign=middle;resizable=0;points=[];autosize=1;strokeColor=none;fillColor=none;" vertex="1" parent="1">
          <mxGeometry x="480" y="370" width="60" height="30" as="geometry" />
        </mxCell>
        <mxCell id="PiM88yR9kCzZZ7znFY00-16" value="$$y$$" style="text;html=1;align=center;verticalAlign=middle;resizable=0;points=[];autosize=1;strokeColor=none;fillColor=none;" vertex="1" parent="1">
          <mxGeometry x="240" y="180" width="60" height="30" as="geometry" />
        </mxCell>
        <mxCell id="PiM88yR9kCzZZ7znFY00-17" value="" style="endArrow=classic;html=1;rounded=0;" edge="1" parent="1">
          <mxGeometry width="50" height="50" relative="1" as="geometry">
            <mxPoint x="290" y="390" as="sourcePoint" />
            <mxPoint x="290" y="190" as="targetPoint" />
          </mxGeometry>
        </mxCell>
        <mxCell id="PiM88yR9kCzZZ7znFY00-18" value="" style="endArrow=classic;html=1;rounded=0;" edge="1" parent="1">
          <mxGeometry width="50" height="50" relative="1" as="geometry">
            <mxPoint x="270" y="370" as="sourcePoint" />
            <mxPoint x="510" y="370" as="targetPoint" />
          </mxGeometry>
        </mxCell>
      </root>
    </mxGraphModel>
  </diagram>
</mxfile>
